/* XPM */
static char *nat1002[] = {
/* columns rows colors chars-per-pixel */
"32 32 109 2 ",
"   c #EC7300",
".  c #FF790B",
"X  c #EC8605",
"o  c #EE8A03",
"O  c #F18502",
"+  c #FF8D00",
"@  c #EE9501",
"#  c #EE9900",
"$  c #EE8C14",
"%  c #EE8C18",
"&  c #EF9417",
"*  c #F29913",
"=  c #F1A100",
"-  c #FFA100",
";  c #F5AA00",
":  c #FFA901",
">  c #FFB300",
",  c #FEBC00",
"<  c #FFAF1D",
"1  c #F7BF15",
"2  c #FBB71A",
"3  c #FF8E29",
"4  c #F39E2D",
"5  c #F4A723",
"6  c #FFA325",
"7  c #F4B723",
"8  c #F7C100",
"9  c #FAC703",
"0  c #FFCC00",
"q  c #FACC0A",
"w  c #FFD401",
"e  c #FFDC01",
"r  c #FFD50C",
"t  c #FFDD0B",
"y  c #FFC91E",
"u  c #FFD617",
"i  c #FFDA11",
"p  c #FFDE1C",
"a  c #FFE201",
"s  c #FFED01",
"d  c #FFE30B",
"f  c #FFEC0B",
"g  c #FFF300",
"h  c #FFFB02",
"j  c #FFF20A",
"k  c #FFFA0B",
"l  c #FFE312",
"z  c #FFEC13",
"x  c #FFE11C",
"c  c #FFEC1C",
"v  c #FFF213",
"b  c #FFF914",
"n  c #FFF21C",
"m  c #FFFC1A",
"M  c #FFDF27",
"N  c #FFDF2B",
"B  c #FFC73C",
"V  c #FFDF3D",
"C  c #FFE125",
"Z  c #FFEB22",
"A  c #FFE22C",
"S  c #FFE928",
"D  c #FFF424",
"F  c #FFFC25",
"G  c #FFF32B",
"H  c #FFFB2C",
"J  c #FFE737",
"K  c #FFE53B",
"L  c #FFEA38",
"P  c #FFF433",
"I  c #FFFB32",
"U  c #FFFD3D",
"Y  c #F4A841",
"T  c #FFB74F",
"R  c #FFE44A",
"E  c #FFE84A",
"W  c #FFF544",
"Q  c #FFFB45",
"!  c #FFF44C",
"~  c #FFFC4E",
"^  c #FFEA55",
"/  c #FFE55A",
"(  c #FFEC59",
")  c #FFF553",
"_  c #FFFD53",
"`  c #FFF658",
"'  c #FFFC5D",
"]  c #FFEB6F",
"[  c #FFF564",
"{  c #FFFD64",
"}  c #FFF66A",
"|  c #FFFC6C",
" . c #FFE672",
".. c #FFF673",
"X. c #FFFD73",
"o. c #FFF77C",
"O. c #FFFC7C",
"+. c #FFF783",
"@. c #FFF983",
"#. c #FFF78A",
"$. c #FFF88C",
"%. c #FFF994",
"&. c #FFF99B",
"*. c #FFF3A4",
"=. c #FFFAA4",
"-. c #FFFAAC",
";. c #FFFBB3",
":. c #FFFDDF",
">. c None",
/* pixels */
"+ + + + + >.>.>.>.>.>.>.>.>.>.>.>.>.>.>.>.>.>.>.>.>.>.>.>.>.>.>.",
"+ 2 2 + >.>.>.>.>.>.>.>.>.>.>.>.>.>.>.>.>.>.>.>.>.>.>.>.>.>.>.>.",
"+ 2 + >.>.>.>.>.>.>.>.>.>.>.>.>.[ S j f >.>.>.>.>.>.>.>.>.>.>.>.",
"+ + >.>.>.>.>.>.>.>.>.>.>.>.>.[ :.} D s s >.>.>.>.>.>.>.>.>.>.>.",
"+ >.>.>.>.>.>.>.>.>.>.>.>.>.B y ! S z W f >.>.>.>.>.>.>.>.>.>.>.",
">.>.>.>.>.>.>.>.>.>.>.>.>.< : f D G o.$.) >.>.>.>.>.>.>.>.>.>.>.",
">.>.>.>.>.>.>.>.>.>.>.>.>.- a g v } +.+.@.n >.>.>.>.>.>.>.>.>.>.",
">.>.>.>.>.>.>.>.>.>.>.>.+ 0 k n ) } o.+.$.! >.>.>.>.>.>.>.>.>.>.",
">.>.>.>.>.>.>.>.>.>.T 6 r h h I [ } ..+.$.` >.>.>.>.>.>.>.>.>.>.",
">.s a s s s s c g h m F k h F _ ' } ..o.+.@.s >.>.>.>.>.>.>.>.>.",
">.g g l t e e a s v P F D k I ~ _ [ } o.+.$.D >.>.>.>.>.>.>.>.>.",
">.9 q Z p e e e a P ;.} H k h H _ ' } o.+.$.} s g >.>.>.>.>.>.>.",
">.>.7 q e e e e a Z ` ! b b m h F ' { @.$.%.$.+.P f g >.>.>.>.>.",
">.>.>.@ e e e e e l z ! D D ' m h H ' | ..o.$.%.&.&.} Z s g >.>.",
">.>.>.* = e e e e d l D D v P n H h Q { X.O.@.$.&.=.-.;.%.G s >.",
">.>.>.>.o 9 e e d E ( c n j j f v h k _ O.%.@.$.%.&.=.;.;.=.s g ",
">.>.>.>.4 o e e i ] *.^ x f f a g g s F { X.O.@.%.&.=.-.;.! s >.",
">.>.>.>.>.  ; e e p A x E p e a a a a g _ | O.@.$.%.=.&.P s >.>.",
">.>.>.>.>.  O a e e e e J A e a a a a s Z [ X.O.@.%...j s >.>.>.",
">.>.>.>.>.% 5 p i e e e t K L L +.z a z b { | O.@.W j >.>.>.>.>.",
">.>.>.>.>.$ 1 / R i t e C t a a s H P j h U | X.H g >.>.>.>.>.>.",
">.>.>.>.Y X t V V u A r t e e e a s g g g m { { g >.>.>.>.>.>.>.",
">.>.>.>.& # e r t r i r M x e a e s g g h k { _ >.>.>.>.>.>.>.>.",
">.>.>.>.@ 8 w w w w w e N x e e a a g g g h _ Q >.>.>.>.>.>.>.>.",
">.>.>.>.; e i r w w w w e e e e e a s g g g ~ U >.>.>.>.>.>.>.>.",
">.>.>., , e r w w w w w w e e e t a s g g g Q H >.>.>.>.>.>.>.>.",
">.>.>.0 e e 0 w w e e s z 0 , a d e s s g g Q F >.>.>.>.>.>.>.>.",
">.>.>.f s g a a f n >.>.>.>.>.. , a s g s g Q m >.>.>.>.>.>.>.>.",
">.>.>.>.>.>.>.>.>.>.>.>.>.>.>.>.3 : g s s g P h >.>.>.>.>.>.>.>.",
">.>.>.>.>.>.>.>.>.>.>.>.>.>.>.>.>.>.> s v k g h >.>.>.>.>.>.>.>.",
">.>.>.>.>.>.>.>.>.>.>.>.>.>.>.>.>.>.>.s I @.m h >.>.>.>.>.>.>.>.",
">.>.>.>.>.>.>.>.>.>.>.>.>.>.>.>.>.>.>.>.>. .>.>.>.>.>.>.>.>.>.>."
};
